<?xml version="1.0" encoding="UTF-8" standalone="no"?>
<svg
   xmlns:dc="http://purl.org/dc/elements/1.1/"
   xmlns:cc="http://creativecommons.org/ns#"
   xmlns:rdf="http://www.w3.org/1999/02/22-rdf-syntax-ns#"
   xmlns:svg="http://www.w3.org/2000/svg"
   xmlns="http://www.w3.org/2000/svg"
   viewBox="0 0 400 400"
   height="400"
   width="400"
   version="1.1"
   id="svg168"><metadata
   id="metadata174">
  <rdf:RDF>
    <cc:Work
       rdf:about="">
      <dc:format>image/svg+xml</dc:format>
      <dc:type
         rdf:resource="http://purl.org/dc/dcmitype/StillImage" />
      <dc:title></dc:title>
    </cc:Work>
  </rdf:RDF>
</metadata>
<defs
   id="defs172" />

,,,,,,,,,,,,,,,,,,,,,,,,,,,,,,,,,,,,,,,,,,,,,,,,,,,,,,,,,,,,,,,,,,,,,,,,,,,,,,,,,<path
   d="m 357.5,200.01017 a 160,160 0 1 0 -305.744,66 h 291.488 a 159.376,159.376 0 0 0 14.256,-66 z"
   fill="#c7f0ff"
   id="path2"
   style="stroke-width:4" />
<path
   d="m 51.756,266.01017 a 160,160 0 0 0 291.488,0 z"
   fill="#f2dfc2"
   id="path4"
   style="stroke-width:4" />
<path
   d="m 41.5,266.01017 h 312"
   fill="none"
   stroke="#45413c"
   stroke-linecap="round"
   stroke-linejoin="round"
   id="path6"
   style="stroke-width:4" />
<path
   d="m 23.5,266.01017 h 10"
   fill="none"
   stroke="#45413c"
   stroke-linecap="round"
   stroke-linejoin="round"
   id="path8"
   style="stroke-width:4" />
<path
   d="m 361.5,266.01017 h 10"
   fill="none"
   stroke="#45413c"
   stroke-linecap="round"
   stroke-linejoin="round"
   id="path10"
   style="stroke-width:4" />
<path
   d="M 174.144,268.01017 H 44.82 v -81.124 a 10.14,10.14 0 0 1 10.144,-10.144 H 164 a 10.144,10.144 0 0 1 10.144,10.144 z"
   fill="#ff6242"
   id="path12"
   style="stroke-width:4" />
<path
   d="M 174.144,186.88617 A 10.148,10.148 0 0 0 164,176.74217 H 54.964 a 10.144,10.144 0 0 0 -10.144,10.144 v 20.284 a 10.14,10.14 0 0 1 10.144,-10.14 H 164 a 10.144,10.144 0 0 1 10.144,10.14 z"
   fill="#ff866e"
   id="path14"
   style="stroke-width:4" />
<path
   d="M 174.144,268.01017 H 44.82 v -81.124 a 10.14,10.14 0 0 1 10.144,-10.144 H 164 a 10.144,10.144 0 0 1 10.144,10.144 z"
   fill="none"
   stroke="#45413c"
   stroke-linecap="round"
   stroke-linejoin="round"
   id="path16"
   style="stroke-width:4" />
<path
   d="m 303.464,268.01017 h -129.32 v -81.124 a 10.14,10.14 0 0 1 10.156,-10.144 h 109.04 a 10.14,10.14 0 0 1 10.14,10.144 z"
   fill="#ff6242"
   id="path18"
   style="stroke-width:4" />
<path
   d="m 303.464,186.88617 a 10.144,10.144 0 0 0 -10.14,-10.144 H 184.3 a 10.144,10.144 0 0 0 -10.14,10.144 v 20.284 a 10.14,10.14 0 0 1 10.14,-10.14 h 109.04 a 10.14,10.14 0 0 1 10.14,10.14 z"
   fill="#ff866e"
   id="path20"
   style="stroke-width:4" />
<path
   d="m 303.464,268.01017 h -129.32 v -81.124 a 10.14,10.14 0 0 1 10.156,-10.144 h 109.04 a 10.14,10.14 0 0 1 10.14,10.144 z"
   fill="none"
   stroke="#45413c"
   stroke-linecap="round"
   stroke-linejoin="round"
   id="path22"
   style="stroke-width:4" />
<path
   d="M 61.1,313.67417 H 48.82 a 4,4 0 0 1 -4,-4 v -6.144 H 65.1 v 6.144 a 4,4 0 0 1 -4,4 z"
   fill="#656769"
   stroke="#45413c"
   stroke-linecap="round"
   stroke-linejoin="round"
   id="path24"
   style="stroke-width:4" />
<path
   d="M 299.464,313.67417 H 287.18 a 4,4 0 0 1 -4,-4 v -6.144 h 20.284 v 6.144 a 4,4 0 0 1 -4,4 z"
   fill="#656769"
   stroke="#45413c"
   stroke-linecap="round"
   stroke-linejoin="round"
   id="path26"
   style="stroke-width:4" />
<path
   d="M 180.3,313.67417 H 168 a 4,4 0 0 1 -4,-4 v -6.144 h 20.3 v 6.144 a 4,4 0 0 1 -4,4 z"
   fill="#656769"
   stroke="#45413c"
   stroke-linecap="round"
   stroke-linejoin="round"
   id="path28"
   style="stroke-width:4" />
<path
   d="M 303.464,303.53017 H 44.82 v -35.5 a 10.14,10.14 0 0 1 10.144,-10.144 h 238.36 a 10.14,10.14 0 0 1 10.14,10.144 z"
   fill="#ff6242"
   id="path30"
   style="stroke-width:4" />
<path
   d="M 303.464,303.53017 H 44.82 v -35.5 a 10.14,10.14 0 0 1 10.144,-10.144 h 238.36 a 10.14,10.14 0 0 1 10.14,10.144 z"
   fill="none"
   stroke="#45413c"
   stroke-linecap="round"
   stroke-linejoin="round"
   id="path32"
   style="stroke-width:4" />
<path
   d="M 24.532,303.53017 H 44.82 v -71 h -15.2 a 10.144,10.144 0 0 0 -10.16,10.144 v 55.784 a 5.072,5.072 0 0 0 5.072,5.072 z"
   fill="#ff6242"
   id="path34"
   style="stroke-width:4" />
<path
   d="m 29.604,232.53017 a 10.144,10.144 0 0 0 -10.144,10.144 v 15.2 a 10.148,10.148 0 0 1 10.144,-10.144 h 15.2 v -15.2 z"
   fill="#ff866e"
   id="path36"
   style="stroke-width:4" />
<path
   d="M 24.532,303.53017 H 44.82 v -71 h -15.2 a 10.144,10.144 0 0 0 -10.16,10.144 v 55.784 a 5.072,5.072 0 0 0 5.072,5.072 z"
   fill="none"
   stroke="#45413c"
   stroke-linecap="round"
   stroke-linejoin="round"
   id="path38"
   style="stroke-width:4" />
<path
   d="m 328.824,298.45817 a 5.072,5.072 0 0 1 -5.072,5.072 h -20.288 v -71 h 15.2 a 10.14,10.14 0 0 1 10.144,10.144 z"
   fill="#ff6242"
   id="path40"
   style="stroke-width:4" />
<path
   d="m 318.7,232.53017 a 10.144,10.144 0 0 1 10.144,10.144 v 15.2 a 10.148,10.148 0 0 0 -10.144,-10.132 h -15.2 v -15.2 z"
   fill="#ff866e"
   id="path42"
   style="stroke-width:4" />
<path
   d="m 328.824,298.45817 a 5.072,5.072 0 0 1 -5.072,5.072 h -20.288 v -71 h 15.2 a 10.14,10.14 0 0 1 10.144,10.144 z"
   fill="none"
   stroke="#45413c"
   stroke-linecap="round"
   stroke-linejoin="round"
   id="path44"
   style="stroke-width:4" />
<path
   d="m 11.856,318.74617 a 162.288,7.608 0 1 0 324.576,0 162.288,7.608 0 1 0 -324.576,0 z"
   fill="#45413c"
   opacity="0.15"
   id="path46"
   style="stroke-width:4" />
<path
   d="m 222.32,322.54217 a 6.34,6.34 0 1 1 -12.676,0 v -59.6 h 12.676 z"
   fill="#adc4d9"
   id="path48"
   style="stroke-width:4" />
<path
   d="m 209.644,262.95017 h 12.68 v 7.608 h -12.68 z"
   fill="#8ca4b8"
   id="path50"
   style="stroke-width:4" />
<path
   d="m 222.32,322.54217 a 6.34,6.34 0 1 1 -12.676,0 v -59.6 h 12.676 z"
   fill="none"
   stroke="#45413c"
   stroke-linecap="round"
   stroke-linejoin="round"
   id="path52"
   style="stroke-width:4" />
<path
   d="m 222.32,262.95017 h 139.468 v 15.216 H 222.32 Z"
   fill="#adc4d9"
   id="path54"
   style="stroke-width:4" />
<path
   d="m 222.32,262.95017 h 139.468 v 7.608 H 222.32 Z"
   fill="#8ca4b8"
   id="path56"
   style="stroke-width:4" />
<path
   d="m 222.32,262.95017 h 139.468 v 15.216 H 222.32 Z"
   fill="none"
   stroke="#45413c"
   stroke-linecap="round"
   stroke-linejoin="round"
   id="path58"
   style="stroke-width:4" />
<path
   d="m 387.144,257.88217 a 5.068,5.068 0 0 1 -5.068,5.068 h -180.04 a 5.072,5.072 0 1 1 0,-10.14 h 180.04 a 5.068,5.068 0 0 1 5.068,5.072 z"
   fill="#00b8f0"
   stroke="#45413c"
   stroke-linecap="round"
   stroke-linejoin="round"
   id="path60"
   style="stroke-width:4" />
<path
   d="m 222.32,322.54217 a 6.34,6.34 0 1 1 -12.676,0 v -6.34 h 12.676 z"
   fill="#525252"
   stroke="#45413c"
   stroke-linecap="round"
   stroke-linejoin="round"
   id="path62"
   style="stroke-width:4" />
<path
   d="m 374.468,322.54217 a 6.34,6.34 0 0 1 -12.68,0 v -59.6 h 12.68 z"
   fill="#adc4d9"
   id="path64"
   style="stroke-width:4" />
<path
   d="m 361.788,262.95017 h 12.68 v 7.608 h -12.68 z"
   fill="#8ca4b8"
   id="path66"
   style="stroke-width:4" />
<path
   d="m 374.468,322.54217 a 6.34,6.34 0 0 1 -12.68,0 v -59.6 h 12.68 z"
   fill="none"
   stroke="#45413c"
   stroke-linecap="round"
   stroke-linejoin="round"
   id="path68"
   style="stroke-width:4" />
<path
   d="m 374.468,322.54217 a 6.34,6.34 0 0 1 -12.68,0 v -6.34 h 12.68 z"
   fill="#525252"
   stroke="#45413c"
   stroke-linecap="round"
   stroke-linejoin="round"
   id="path70"
   style="stroke-width:4" />
<path
   d="m 313.608,237.59417 h 60.86 v 15.216 h -60.86 z"
   fill="#6dd627"
   stroke="#45413c"
   stroke-linecap="round"
   stroke-linejoin="round"
   id="path72"
   style="stroke-width:4" />
<path
   d="m 323.752,237.59417 h 10.144 v 15.216 h -10.144 z"
   fill="#c8ffa1"
   stroke="#45413c"
   stroke-linecap="round"
   stroke-linejoin="round"
   id="path74"
   style="stroke-width:4" />
<path
   d="m 303.464,222.37817 h 60.856 v 15.216 h -60.856 z"
   fill="#ffe500"
   stroke="#45413c"
   stroke-linecap="round"
   stroke-linejoin="round"
   id="path76"
   style="stroke-width:4" />
<path
   d="m 313.608,222.37817 h 10.144 v 15.216 h -10.144 z"
   fill="#fffacf"
   stroke="#45413c"
   stroke-linecap="round"
   stroke-linejoin="round"
   id="path78"
   style="stroke-width:4" />
<path
   d="m 279.36448,248.61943 19.48506,-57.65227 14.41496,4.87191 -19.48506,57.65226 z"
   fill="#9f5ae5"
   stroke="#45413c"
   stroke-linecap="round"
   stroke-linejoin="round"
   id="path80"
   style="stroke-width:4" />
<path
   d="m 292.35118,210.17921 3.24794,-9.60996 14.41496,4.8719 -3.24794,9.60998 z"
   fill="#dabff5"
   stroke="#45413c"
   stroke-linecap="round"
   stroke-linejoin="round"
   id="path82"
   style="stroke-width:4" />
<path
   d="m 242.608,242.67417 h -15.2 a 10.144,10.144 0 0 1 -10.14,-10.144 v -15.2 a 5.072,5.072 0 0 1 5.068,-5.072 h 25.36 a 5.072,5.072 0 0 1 5.072,5.072 v 15.2 a 10.148,10.148 0 0 1 -10.16,10.144 z"
   fill="#ffffff"
   id="path84"
   style="stroke-width:4" />
<path
   d="m 242.608,232.53017 h -15.2 a 10.144,10.144 0 0 1 -10.14,-10.144 v 10.144 a 10.144,10.144 0 0 0 10.14,10.144 h 15.2 a 10.148,10.148 0 0 0 10.144,-10.144 v -10.144 a 10.148,10.148 0 0 1 -10.144,10.144 z"
   fill="#e8f4fa"
   id="path86"
   style="stroke-width:4" />
<path
   d="m 242.608,242.67417 h -15.2 a 10.144,10.144 0 0 1 -10.14,-10.144 v -15.2 a 5.072,5.072 0 0 1 5.068,-5.072 h 25.36 a 5.072,5.072 0 0 1 5.072,5.072 v 15.2 a 10.148,10.148 0 0 1 -10.16,10.144 z"
   fill="none"
   stroke="#45413c"
   stroke-linecap="round"
   stroke-linejoin="round"
   id="path88"
   style="stroke-width:4" />
<path
   d="m 252.752,217.31417 h 3.872 a 6.268,6.268 0 0 1 6.268,6.268 v 0 a 6.264,6.264 0 0 1 -3.464,5.6 l -6.676,3.34"
   fill="none"
   stroke="#45413c"
   stroke-linecap="round"
   stroke-linejoin="round"
   id="path90"
   style="stroke-width:4" />
<path
   d="m 258.088,247.21017 a 10.136,10.136 0 0 1 -9.072,5.6 h -28.032 a 10.136,10.136 0 0 1 -9.084,-5.6 3.132,3.132 0 0 1 2.8,-4.536 h 40.588 a 3.132,3.132 0 0 1 2.8,4.536 z"
   fill="#daedf7"
   stroke="#45413c"
   stroke-linecap="round"
   stroke-linejoin="round"
   id="path92"
   style="stroke-width:4" />
<path
   d="m 247.304,165.15817 a 11.768,11.768 0 0 0 -13.092,18.368 c -0.08,0.036 -0.16,0.052 -0.24,0.092 a 7.068,7.068 0 1 0 9.928,4.428 11.756,11.756 0 0 0 3.424,-22.888 z"
   fill="#ffffff"
   stroke="#45413c"
   stroke-linecap="round"
   stroke-linejoin="round"
   id="path94"
   style="stroke-width:4" />
<path
   d="m 214.804,153.92217 a 7.608,7.608 0 1 0 15.216,0 7.608,7.608 0 1 0 -15.216,0 z"
   fill="#ffffff"
   stroke="#45413c"
   stroke-linecap="round"
   stroke-linejoin="round"
   id="path96"
   style="stroke-width:4" />
<path
   d="m 169.068,242.67417 a 15.2,15.2 0 0 1 -15.2,15.2 h -35.516 a 15.2,15.2 0 0 1 -15.2,-15.2 v -10.14 h 65.916 z"
   fill="#6dd627"
   id="path98"
   style="fill:#64758c;fill-opacity:1;stroke-width:4" />
<path
   d="m 103.136,232.53417 h 65.928 v 12.668 h -65.928 z"
   fill="#46b000"
   id="path100"
   style="fill:#4a628a;fill-opacity:1;stroke-width:4" />
<path
   d="m 169.068,242.67417 a 15.2,15.2 0 0 1 -15.2,15.2 h -35.516 a 15.2,15.2 0 0 1 -15.2,-15.2 v -10.14 h 65.916 z"
   fill="none"
   stroke="#45413c"
   stroke-linecap="round"
   stroke-linejoin="round"
   id="path102"
   style="stroke-width:4" />
<path
   d="m 169.064,222.41017 v 15.2 h -65.928 v -15.2 h -15.2 a 2.536,2.536 0 0 1 -2.536,-2.536 v -20.308 a 50.716,50.716 0 0 1 101.432,0 v 20.288 a 2.54,2.54 0 0 1 -2.536,2.536 z"
   fill="#f0f0f0"
   id="path104"
   style="stroke-width:4" />
<path
   d="m 136.1,148.85417 a 50.716,50.716 0 0 0 -50.716,50.712 v 12.672 a 50.716,50.716 0 0 1 101.432,0 v -12.672 a 50.716,50.716 0 0 0 -50.716,-50.712 z"
   fill="#ffffff"
   id="path106"
   style="stroke-width:4" />
<path
   d="m 169.064,235.05817 h 0.008 v 2.544 h -0.008 z"
   fill="#ffffff"
   id="path108"
   style="stroke-width:4" />
<path
   d="m 169.064,222.41017 v 15.2 h -65.928 v -15.2 h -15.2 a 2.536,2.536 0 0 1 -2.536,-2.536 v -20.308 a 50.716,50.716 0 0 1 101.432,0 v 20.288 a 2.54,2.54 0 0 1 -2.536,2.536 z"
   fill="none"
   stroke="#45413c"
   stroke-linecap="round"
   stroke-linejoin="round"
   id="path110"
   style="stroke-width:4" />
<path
   d="m 103.136,189.42617 v 53.252"
   fill="none"
   stroke="#45413c"
   stroke-linecap="round"
   stroke-linejoin="round"
   id="path112"
   style="stroke-width:4" />
<path
   d="m 169.064,189.42617 v 53.248"
   fill="none"
   stroke="#45413c"
   stroke-linecap="round"
   stroke-linejoin="round"
   id="path114"
   style="stroke-width:4" />
<path
   d="m 149.552,150.67017 a 4,4 0 0 1 -2.972,-3.872 v -14.78 h -20.912 v 14.8 a 4,4 0 0 1 -2.976,3.86 c -0.656,0.176 -1.304,0.36 -1.948,0.564 0,0 2.7,15.376 15.376,15.376 12.676,0 15.376,-15.372 15.376,-15.372 -0.652,-0.22 -1.296,-0.404 -1.944,-0.576 z"
   fill="#ffcebf"
   stroke="#45413c"
   stroke-linecap="round"
   stroke-linejoin="round"
   id="path116"
   style="stroke-width:4" />
<path
   d="m 103.14,242.67417 h -5.072 a 10.144,10.144 0 0 1 -10.144,-10.14 v -10.124 h 15.2 z"
   fill="#ffcebf"
   stroke="#45413c"
   stroke-linecap="round"
   stroke-linejoin="round"
   id="path118"
   style="stroke-width:4" />
<path
   d="m 184.3,232.53417 a 10.14,10.14 0 0 1 -10.144,10.14 h -5.088 v -20.264 h 15.2 z"
   fill="#ffcebf"
   stroke="#45413c"
   stroke-linecap="round"
   stroke-linejoin="round"
   id="path120"
   style="stroke-width:4" />
<path
   d="m 181.652,251.76617 a 12.686856,12.686856 0 1 0 -25.2,-2.964 l -6.8,57.92 25.2,2.968 z"
   fill="#6dd627"
   stroke="#45413c"
   stroke-linecap="round"
   stroke-linejoin="round"
   id="path122"
   style="fill:#64758c;fill-opacity:1;stroke-width:4" />
<path
   d="m 172.768,313.68217 a 5.056,5.056 0 0 0 4.548,-7.356 15.2,15.2 0 0 0 -13.32,-7.86 h -2.536 a 15.2,15.2 0 0 0 -13.32,7.86 5.056,5.056 0 0 0 4.56,7.356 z"
   fill="#947746"
   stroke="#45413c"
   stroke-linecap="round"
   stroke-linejoin="round"
   id="path124"
   style="stroke-width:4" />
<path
   d="m 90.56,251.76617 a 12.676458,12.676458 0 1 1 25.18,-2.956 l 6.82,57.92 -25.2,2.968 z"
   fill="#6dd627"
   stroke="#45413c"
   stroke-linecap="round"
   stroke-linejoin="round"
   id="path126"
   style="fill:#64758c;fill-opacity:1;stroke-width:4" />
<path
   d="m 99.444,313.68217 a 5.056,5.056 0 0 1 -4.552,-7.356 15.2,15.2 0 0 1 13.32,-7.86 h 2.536 a 15.2,15.2 0 0 1 13.324,7.86 5.056,5.056 0 0 1 -4.552,7.356 z"
   fill="#947746"
   stroke="#45413c"
   stroke-linecap="round"
   stroke-linejoin="round"
   id="path128"
   style="stroke-width:4" />
<path
   d="m 171.604,114.41017 a 6.248,6.248 0 0 0 -5.068,-6.084 v -4.044 a 30.432,30.432 0 1 0 -60.86,0 v 4.056 a 6.212,6.212 0 0 0 0.64,12.296 30.432,30.432 0 0 0 59.58,0 6.272,6.272 0 0 0 5.708,-6.224 z"
   fill="#ffcebf"
   stroke="#45413c"
   stroke-linecap="round"
   stroke-linejoin="round"
   id="path130"
   style="stroke-width:4" />
<path
   d="m 128.496,127.33417 a 13.712,13.712 0 0 0 15.2,0"
   fill="none"
   stroke="#45413c"
   stroke-linecap="round"
   stroke-linejoin="round"
   id="path132"
   style="stroke-width:4" />
<path
   d="m 176.676,232.53417 a 5.072,5.072 0 0 1 -5.072,5.076 h -71 a 5.072,5.072 0 0 1 -5.072,-5.072 v -2.528 a 2.536,2.536 0 0 1 2.536,-2.536 h 76.072 a 2.536,2.536 0 0 1 2.536,2.536 z"
   fill="#c0dceb"
   stroke="#45413c"
   stroke-linecap="round"
   stroke-linejoin="round"
   id="path154"
   style="stroke-width:4" />
<path
   d="m 95.532,181.80617 h 81.144 v 45.652 H 95.532 Z"
   fill="#daedf7"
   id="path156"
   style="stroke-width:4" />
<path
   d="m 176.676,186.87817 a 5.072,5.072 0 0 0 -5.072,-5.072 h -71 a 5.072,5.072 0 0 0 -5.072,5.072 v 5.084 c 0,-2.8 2.272,0 5.072,0 h 71 c 2.8,0 5.072,-2.8 5.072,0 z"
   fill="#e8f4fa"
   id="path158"
   style="stroke-width:4" />
<path
   d="m 95.532,181.80617 h 81.144 v 45.652 H 95.532 Z"
   fill="none"
   stroke="#45413c"
   stroke-linecap="round"
   stroke-linejoin="round"
   id="path160"
   style="stroke-width:4" />
<path
   d="m 128.5,209.70217 a 7.608,7.608 0 1 0 15.216,0 7.608,7.608 0 1 0 -15.216,0 z"
   fill="#ffe500"
   stroke="#45413c"
   stroke-linecap="round"
   stroke-linejoin="round"
   id="path162"
   style="stroke-width:4" />
<path
   d="m 138.64,194.48217 -2.532,2.54 v 5.072"
   fill="none"
   stroke="#45413c"
   stroke-linecap="round"
   stroke-linejoin="round"
   id="path164"
   style="stroke-width:4" />
<g
   id="g1175"
   transform="matrix(2,0,0,2,270.11468,-88.23419)">
  <path
     id="path4868"
     d="m -52.109339,104.43418 c -3.934598,0.79457 -5.689538,4.91585 -10.102106,3.34577 -1.115588,-0.67074 -2.773113,-1.38296 -4.789931,-1.38296 -2.016819,0 -3.677958,0.71222 -4.793546,1.38296 -4.98397,1.39513 -5.497547,-2.55407 -10.004856,-3.00722 1.569513,6.73332 7.595959,11.75155 14.805593,11.75155 7.317118,0 13.425232,-5.16549 14.877636,-12.05048 l 0.0074,-0.0396 z"
     style="opacity:0.25;fill:#5a5b5e;fill-opacity:1;stroke:none;stroke-width:2.30493;stroke-linecap:round;stroke-linejoin:round;stroke-miterlimit:10;stroke-dasharray:none;stroke-opacity:1" />
  <path
     style="fill:none;fill-opacity:1;stroke:#45413c;stroke-width:2;stroke-linecap:round;stroke-linejoin:round;stroke-miterlimit:10;stroke-dasharray:none;stroke-opacity:1"
     d="m -81.799778,104.77273 c 1.569513,6.73332 7.595959,11.75155 14.805593,11.75155 7.317118,0 13.425232,-5.16549 14.877636,-12.05048 l 0.0074,-0.0396 -1.66e-4,2e-5"
     id="path4870" />
</g>
<g
   id="g1169"
   transform="matrix(2,0,0,2,270.0944,-8.20749)">
  <path
     id="path4872"
     d="m -81.88077,44.392934 c -1.868176,3.879962 -0.720523,8.869888 -0.328426,13.879896 1.003256,-3.07554 1.609509,-6.511295 3.435092,-8.461989 2.041785,-2.098708 3.941788,-2.773114 7.189978,-2.738318 6.970455,0.438362 6.780233,6.075347 17.806378,5.222466 1.122486,1.606024 1.687323,3.37284 1.993696,5.977841 0.734684,-6.06128 1.275126,-11.354203 -1.829215,-15.31598 -4.624917,-5.837517 -17.231289,-7.336959 -21.208372,-1.788077 -2.985775,-0.946352 -5.726897,0.457298 -7.059131,3.224161 z"
     style="fill:#5a5b5e;fill-opacity:1;stroke:#45413c;stroke-width:2.30493;stroke-linecap:round;stroke-linejoin:round;stroke-miterlimit:10;stroke-dasharray:none;stroke-opacity:1" />
  <path
     style="fill:#797a7e;fill-opacity:1;stroke:none;stroke-width:2.30493;stroke-linecap:round;stroke-linejoin:round;stroke-miterlimit:10;stroke-dasharray:none;stroke-opacity:1"
     d="m -82.209196,53.709297 c 1.671115,-6.825281 1.087635,-10.544856 8.275805,-8.934924 6.950689,-3.838768 13.937519,-2.464898 19.09624,1.897682 1.122485,1.606022 2.746726,4.432241 3.053099,7.037242 0.734684,-6.061278 1.275126,-6.79067 -1.829215,-10.752447 -4.624917,-5.837517 -17.231289,-7.336959 -21.208372,-1.788077 -9.088986,-0.809475 -7.740654,8.429166 -7.387557,12.540524 z"
     id="path4921" />
  <path
     style="fill:none;fill-opacity:1;stroke:#45413c;stroke-width:2;stroke-linecap:round;stroke-linejoin:round;stroke-miterlimit:10;stroke-dasharray:none;stroke-opacity:1"
     d="m -51.784052,58.27283 c 0.734684,-6.06128 1.275126,-11.354203 -1.829215,-15.31598 -4.624917,-5.837517 -17.231289,-7.336959 -21.208372,-1.788077 -2.985775,-0.946352 -5.726897,0.457298 -7.059131,3.224161 -1.868176,3.879962 -0.720523,8.869888 -0.328426,13.879896"
     id="path4923" />
</g>
<g
   id="g1207"
   transform="matrix(2,0,0,2,270.09362,-48.20601)">
  <path
     d="m -72.598976,82.560116 h -3.270702 c -1.399096,0 -2.535429,-1.134028 -2.535429,-2.535428 v -2.535429 c 0,-0.698395 0.569319,-1.267714 1.267714,-1.267714 h 6.338572 c 0.799812,0 1.399095,0.732969 1.24236,1.516647 l -0.55549,2.784362 c -0.237408,1.184736 -1.279239,2.037562 -2.487025,2.037562"
     style="fill:#00b8f0;fill-opacity:1;fill-rule:nonzero;stroke:none;stroke-width:1.84395"
     id="path1193" />
  <path
     d="m -70.799282,76.221545 h -6.338572 c -0.698395,0 -1.267714,0.569319 -1.267714,1.267714 v 2.535429 c 0,1.028001 0.613113,1.913096 1.493598,2.311849 z"
     style="fill:#4acfff;fill-opacity:1;fill-rule:nonzero;stroke:none;stroke-width:1.84395"
     id="path1195" />
  <path
     d="m -72.598976,82.560116 h -3.270702 c -1.399096,0 -2.535429,-1.134028 -2.535429,-2.535428 v -2.535429 c 0,-0.698395 0.569319,-1.267714 1.267714,-1.267714 h 6.338572 c 0.799812,0 1.399095,0.732969 1.24236,1.516647 l -0.55549,2.784362 c -0.237408,1.184736 -1.279239,2.037562 -2.487025,2.037562 z"
     style="fill:none;stroke:#45413c;stroke-width:2;stroke-linecap:round;stroke-linejoin:round;stroke-miterlimit:10;stroke-dasharray:none;stroke-opacity:1"
     id="path1197" />
  <path
     d="m -61.391681,82.560116 h 3.270703 c 1.399095,0 2.535428,-1.134028 2.535428,-2.535428 v -2.535429 c 0,-0.698395 -0.569319,-1.267714 -1.267714,-1.267714 h -6.338571 c -0.799813,0 -1.399096,0.732969 -1.24236,1.516647 l 0.555489,2.784362 c 0.237409,1.184736 1.279239,2.037562 2.487025,2.037562"
     style="fill:#00b8f0;fill-opacity:1;fill-rule:nonzero;stroke:none;stroke-width:1.84395"
     id="path1199" />
  <path
     d="m -64.434896,77.738745 0.557794,2.784362 c 0.135899,0.68687 0.54627,1.260799 1.099454,1.622674 l 5.923683,-5.923683 h -6.336266 c -0.802117,0 -1.4014,0.732969 -1.244665,1.516647"
     style="fill:#4acfff;fill-opacity:1;fill-rule:nonzero;stroke:none;stroke-width:1.84395"
     id="path1201" />
  <path
     d="m -61.391681,82.560116 h 3.270703 c 1.399095,0 2.535428,-1.134028 2.535428,-2.535428 v -2.535429 c 0,-0.698395 -0.569319,-1.267714 -1.267714,-1.267714 h -6.338571 c -0.799813,0 -1.399096,0.732969 -1.24236,1.516647 l 0.555489,2.784362 c 0.237409,1.184736 1.279239,2.037562 2.487025,2.037562 z"
     style="fill:none;stroke:#45413c;stroke-width:2;stroke-linecap:round;stroke-linejoin:round;stroke-miterlimit:10;stroke-dasharray:none;stroke-opacity:1"
     id="path1203" />
  <path
     d="m -68.262452,78.757158 h 2.535428"
     style="fill:none;stroke:#45413c;stroke-width:2;stroke-linecap:round;stroke-linejoin:round;stroke-miterlimit:10;stroke-dasharray:none;stroke-opacity:1"
     id="path1205" />
</g>
</svg>
