<?xml version="1.0" encoding="UTF-8" standalone="no"?>
<svg
   xmlns:dc="http://purl.org/dc/elements/1.1/"
   xmlns:cc="http://creativecommons.org/ns#"
   xmlns:rdf="http://www.w3.org/1999/02/22-rdf-syntax-ns#"
   xmlns:svg="http://www.w3.org/2000/svg"
   xmlns="http://www.w3.org/2000/svg"
   xmlns:sodipodi="http://sodipodi.sourceforge.net/DTD/sodipodi-0.dtd"
   xmlns:inkscape="http://www.inkscape.org/namespaces/inkscape"
   width="1720"
   height="245"
   viewBox="0 0 1720 245"
   fill="none"
   version="1.1"
   id="svg43"
   sodipodi:docname="logo_dark_mode.svg"
   inkscape:version="1.0.2 (394de47547, 2021-03-26)">
  <metadata
     id="metadata47">
    <rdf:RDF>
      <cc:Work
         rdf:about="">
        <dc:format>image/svg+xml</dc:format>
        <dc:type
           rdf:resource="http://purl.org/dc/dcmitype/StillImage" />
        <dc:title></dc:title>
      </cc:Work>
    </rdf:RDF>
  </metadata>
  <sodipodi:namedview
     pagecolor="#ffffff"
     bordercolor="#666666"
     borderopacity="1"
     objecttolerance="10"
     gridtolerance="10"
     guidetolerance="10"
     inkscape:pageopacity="0"
     inkscape:pageshadow="2"
     inkscape:window-width="1856"
     inkscape:window-height="1016"
     id="namedview45"
     showgrid="false"
     inkscape:zoom="0.53322528"
     inkscape:cx="789.4108"
     inkscape:cy="285.184"
     inkscape:window-x="64"
     inkscape:window-y="27"
     inkscape:window-maximized="1"
     inkscape:current-layer="svg43" />
  <defs
     id="defs41">
    <linearGradient
       id="paint0_linear"
       x1="131.849"
       y1="295.871"
       x2="198.61099"
       y2="304.452"
       gradientUnits="userSpaceOnUse">
      <stop
         stop-color="#1A7D75"
         id="stop16" />
      <stop
         offset="1"
         stop-color="#1A8864"
         id="stop18" />
    </linearGradient>
    <linearGradient
       id="paint1_linear"
       x1="8.1346998"
       y1="116.241"
       x2="-25.494301"
       y2="204.661"
       gradientUnits="userSpaceOnUse">
      <stop
         offset="0.0129262"
         stop-color="#168A81"
         id="stop21" />
      <stop
         offset="1"
         stop-color="#31A97F"
         id="stop23" />
    </linearGradient>
    <linearGradient
       id="paint2_linear"
       x1="57.661701"
       y1="127.831"
       x2="114.279"
       y2="213.67599"
       gradientUnits="userSpaceOnUse">
      <stop
         stop-color="#27A59B"
         id="stop26" />
      <stop
         offset="1"
         stop-color="#64D8A2"
         id="stop28" />
    </linearGradient>
    <linearGradient
       id="paint3_linear"
       x1="37.4823"
       y1="127.87"
       x2="98.5345"
       y2="180.757"
       gradientUnits="userSpaceOnUse">
      <stop
         stop-color="#27A59B"
         id="stop31" />
      <stop
         offset="1"
         stop-color="#64D8A2"
         id="stop33" />
    </linearGradient>
    <linearGradient
       id="paint4_linear"
       x1="304.54199"
       y1="-205.80099"
       x2="124.854"
       y2="-266.45099"
       gradientUnits="userSpaceOnUse">
      <stop
         stop-color="#27A59B"
         id="stop36" />
      <stop
         offset="1"
         stop-color="#64D8A2"
         id="stop38" />
    </linearGradient>
  </defs>
  <path
     d="m 113.82666,20.000678 q -9.504,0 -13.536,10.944 L 36.642658,212.67269 q -2.016,6.336 0.86324,10.368 2.88,4.032 9.792,4.032 9.216,0 12.672,-10.08 l 54.432022,-160.416002 55.872,159.552002 q 3.744,10.944 12.672,10.944 4.608,0 7.2,-2.88 2.88,-2.592 4.896,-8.064 l 55.296,-160.992002 55.872,161.856002 q 3.168,10.08 12.384,10.08 6.048,0 8.64,-4.032 2.88,-4.032 0.86474,-10.368 l -63.936,-181.728012 q -2.016,-5.472 -5.184,-8.352 -2.88,-2.592 -8.352,-2.592 -5.184,0 -8.352,2.592 -3.168,2.88 -5.184,8.352 l -54.72,158.112012 -55.296,-158.112012 q -2.016,-5.472 -4.896,-8.352 -2.88,-2.592 -8.352,-2.592 z"
     style="font-style:normal;font-variant:normal;font-weight:normal;font-stretch:normal;font-size:19.05px;line-height:1.25;font-family:Nunito;-inkscape-font-specification:Nunito;fill:#d0fefe;fill-opacity:1;stroke-width:4"
     id="path956" />
  <g
     aria-label="I"
     transform="matrix(0,15.11811,15.11811,0,3818.9739,-3770.5012)"
     id="g920"
     style="font-style:normal;font-variant:normal;font-weight:normal;font-stretch:normal;font-size:19.05px;line-height:1.25;font-family:Nunito;-inkscape-font-specification:Nunito;fill:#01cacb;fill-opacity:1;stroke-width:0.264583">
    <path
       d="m 258.57786,-236.00579 c -0.44906,-0.29985 -0.78105,-2.95497 -0.78105,-4.55614 v -6.36068 c 0,-1.58653 0.26035,-4.7234 0.78105,-5.02515 0.50972,0.28041 0.78105,4.01071 0.78105,5.90283 v 4.88685 c 0,2.29481 -0.26808,4.89933 -0.78105,5.15229 z"
       style="font-style:normal;font-variant:normal;font-weight:normal;font-stretch:normal;font-size:19.05px;font-family:Nunito;-inkscape-font-specification:Nunito;fill:#01cacb;fill-opacity:1;stroke-width:0.264583"
       id="path918"
       sodipodi:nodetypes="csscssc" />
  </g>
  <g
     id="g942"
     transform="matrix(15.11811,0,0,15.11811,3834.9739,-4422.5012)"
     style="fill:#d0fefe;fill-opacity:1">
    <g
       aria-label="W"
       transform="scale(1,-1)"
       id="g940"
       style="font-style:normal;font-variant:normal;font-weight:normal;font-stretch:normal;font-size:19.05px;line-height:1.25;font-family:Nunito;-inkscape-font-specification:Nunito;fill:#d0fefe;fill-opacity:1;stroke-width:0.264583">
      <path
         d="m -246.13839,-293.85295 c -0.4191,0 -0.71755,-0.2413 -0.89535,-0.7239 l -4.21005,-12.02055 c -0.0889,-0.2794 -0.0699,-0.508 0.0571,-0.6858 0.127,-0.1778 0.3429,-0.2667 0.6477,-0.2667 0.4064,0 0.6858,0.22225 0.8382,0.66675 l 3.60045,10.61085 0.83825,1.69545 c -0.0889,0.2413 -0.19685,0.42545 -0.32385,0.55245 -0.127,0.1143 -0.31115,0.17145 -0.55245,0.17145 z"
         style="font-style:normal;font-variant:normal;font-weight:normal;font-stretch:normal;font-size:19.05px;font-family:Nunito;-inkscape-font-specification:Nunito;fill:#d0fefe;fill-opacity:1;stroke-width:0.264583"
         id="path938"
         sodipodi:nodetypes="sccssccccs" />
    </g>
  </g>
  <g
     id="g948"
     transform="matrix(15.11811,0,0,15.11811,3970.9739,-4422.5012)"
     style="fill:#d0fefe;fill-opacity:1">
    <g
       aria-label="W"
       transform="scale(1,-1)"
       id="g946"
       style="font-style:normal;font-variant:normal;font-weight:normal;font-stretch:normal;font-size:19.05px;line-height:1.25;font-family:Nunito;-inkscape-font-specification:Nunito;fill:#d0fefe;fill-opacity:1;stroke-width:0.264583">
      <path
         d="m -246.13839,-293.85295 c -0.4191,0 -0.71755,-0.2413 -0.89535,-0.7239 l -4.21005,-12.02055 c -0.0889,-0.2794 -0.0699,-0.508 0.0571,-0.6858 0.127,-0.1778 0.3429,-0.2667 0.6477,-0.2667 0.4064,0 0.6858,0.22225 0.8382,0.66675 l 3.60045,10.61085 0.83825,1.69545 c -0.0889,0.2413 -0.19685,0.42545 -0.32385,0.55245 -0.127,0.1143 -0.31115,0.17145 -0.55245,0.17145 z"
         style="font-style:normal;font-variant:normal;font-weight:normal;font-stretch:normal;font-size:19.05px;font-family:Nunito;-inkscape-font-specification:Nunito;fill:#d0fefe;fill-opacity:1;stroke-width:0.264583"
         id="path944"
         sodipodi:nodetypes="sccssccccs" />
    </g>
  </g>
  <g
     aria-label="Augusto Mathurin"
     id="text952"
     style="font-size:168px;line-height:1.25;font-family:'Open Sans';-inkscape-font-specification:'Open Sans';fill:#ffffff;fill-opacity:1;stroke-width:4">
    <path
       d="m 399.86061,188.25509 q -3.36,0 -4.368,-2.016 -1.008,-2.184 0.336,-5.208 l 47.208,-108.528004 q 2.016,-4.704 6.216,-4.704 4.2,0 6.216,4.704 l 47.208,108.528004 q 1.512,3.024 0.504,5.208 -0.84,2.016 -4.032,2.016 -2.352,0 -3.864,-1.176 -1.344,-1.344 -2.352,-3.528 l -11.928,-27.888 h -63.504 l -11.928,27.888 q -2.016,4.704 -5.712,4.704 z m 49.224,-106.680004 -27.72,65.184004 h 55.776 l -27.72,-65.184004 z"
       style="font-style:normal;font-variant:normal;font-weight:300;font-stretch:normal;font-size:168px;font-family:Nunito;-inkscape-font-specification:'Nunito Light';fill:#ffffff;fill-opacity:1;stroke-width:4"
       id="path911" />
    <path
       d="m 552.17886,188.59109 q -29.064,0 -29.064,-31.584 v -47.04 q 0,-5.376 5.208,-5.376 5.04,0 5.04,5.376 v 46.536 q 0,11.928 4.872,17.64 4.872,5.712 15.288,5.712 11.256,0 18.312,-7.56 7.224,-7.56 7.224,-20.16 v -42.168 q 0,-5.376 5.208,-5.376 5.04,0 5.04,5.376 v 73.08 q 0,5.208 -4.872,5.208 -5.04,0 -5.04,-5.208 v -10.248 q -4.032,7.728 -11.256,11.76 -7.056,4.032 -15.96,4.032 z"
       style="font-style:normal;font-variant:normal;font-weight:300;font-stretch:normal;font-size:168px;font-family:Nunito;-inkscape-font-specification:'Nunito Light';fill:#ffffff;fill-opacity:1;stroke-width:4"
       id="path913" />
    <path
       d="m 651.75824,218.83109 q -9.072,0 -17.64,-2.352 -8.4,-2.184 -15.288,-7.224 -2.352,-1.512 -2.016,-3.864 0.336,-2.352 2.184,-3.864 1.848,-1.344 4.032,0 7.56,5.04 14.112,6.888 6.72,1.848 14.28,1.848 12.264,0 18.648,-6.72 6.384,-6.72 6.384,-19.488 v -15.792 q -3.528,8.064 -11.256,12.6 -7.56,4.536 -17.304,4.536 -11.424,0 -19.656,-5.04 -8.064,-5.208 -12.6,-14.28 -4.368,-9.24 -4.368,-21.336 0,-12.096 4.368,-21.168 4.536,-9.072 12.6,-14.112 8.232,-5.208 19.656,-5.208 9.744,0 17.136,4.536 7.56,4.368 11.256,12.264 v -11.088 q 0,-5.376 5.04,-5.376 5.04,0 5.04,5.376 v 72.576 q 0,36.288 -34.608,36.288 z m -2.688,-42.168 q 12.6,0 19.992,-8.568 7.392,-8.736 7.392,-23.352 0,-14.616 -7.392,-23.184 -7.392,-8.568 -19.992,-8.568 -12.768,0 -20.16,8.568 -7.224,8.568 -7.224,23.184 0,14.616 7.224,23.352 7.392,8.568 20.16,8.568 z"
       style="font-style:normal;font-variant:normal;font-weight:300;font-stretch:normal;font-size:168px;font-family:Nunito;-inkscape-font-specification:'Nunito Light';fill:#ffffff;fill-opacity:1;stroke-width:4"
       id="path915" />
    <path
       d="m 742.16324,188.59109 q -29.064,0 -29.064,-31.584 v -47.04 q 0,-5.376 5.208,-5.376 5.04,0 5.04,5.376 v 46.536 q 0,11.928 4.872,17.64 4.872,5.712 15.288,5.712 11.256,0 18.312,-7.56 7.224,-7.56 7.224,-20.16 v -42.168 q 0,-5.376 5.208,-5.376 5.04,0 5.04,5.376 v 73.08 q 0,5.208 -4.872,5.208 -5.04,0 -5.04,-5.208 v -10.248 q -4.032,7.728 -11.256,11.76 -7.056,4.032 -15.96,4.032 z"
       style="font-style:normal;font-variant:normal;font-weight:300;font-stretch:normal;font-size:168px;font-family:Nunito;-inkscape-font-specification:'Nunito Light';fill:#ffffff;fill-opacity:1;stroke-width:4"
       id="path917" />
    <path
       d="m 832.83861,188.59109 q -7.56,0 -15.12,-2.016 -7.392,-2.016 -14.112,-6.888 -2.184,-1.344 -2.016,-3.696 0.168,-2.52 1.848,-3.864 1.848,-1.344 4.536,0.336 6.552,4.368 12.768,6.048 6.216,1.68 12.432,1.68 10.416,0 15.624,-3.696 5.376,-3.864 5.376,-10.584 0,-5.208 -3.528,-8.232 -3.528,-3.024 -11.088,-4.872 l -14.616,-3.36 q -20.664,-4.704 -20.664,-21.336 0,-10.752 8.4,-17.304 8.4,-6.552 22.176,-6.552 7.224,0 13.944,2.184 6.888,2.184 11.928,6.72 2.184,1.68 1.848,4.032 -0.336,2.352 -2.352,3.528 -1.848,1.176 -4.368,-0.672 -4.872,-3.696 -10.248,-5.376 -5.376,-1.848 -10.92,-1.848 -9.744,0 -15.12,4.032 -5.208,4.032 -5.208,10.92 0,5.208 3.192,8.4 3.192,3.192 10.416,4.872 l 14.616,3.36 q 10.92,2.52 16.296,7.56 5.376,4.872 5.376,13.272 0,10.92 -8.568,17.136 -8.568,6.216 -22.848,6.216 z"
       style="font-style:normal;font-variant:normal;font-weight:300;font-stretch:normal;font-size:168px;font-family:Nunito;-inkscape-font-specification:'Nunito Light';fill:#ffffff;fill-opacity:1;stroke-width:4"
       id="path919" />
    <path
       d="m 916.44486,188.59109 q -13.608,0 -20.496,-7.392 -6.72,-7.392 -6.72,-21.168 v -46.032 h -12.432 q -4.872,0 -4.872,-4.2 0,-4.032 4.872,-4.032 h 12.432 V 84.767086 q 0,-5.208 5.208,-5.208 5.04,0 5.04,5.208 v 21.000004 h 22.68 q 4.704,0 4.704,4.032 0,4.2 -4.704,4.2 h -22.68 v 44.688 q 0,10.248 4.2,15.624 4.2,5.376 13.944,5.376 3.36,0 5.544,-0.672 2.184,-0.84 3.864,-0.84 3.024,0 3.024,4.2 0,1.344 -0.672,2.688 -0.504,1.176 -2.016,1.68 -1.848,0.672 -5.04,1.176 -3.192,0.672 -5.88,0.672 z"
       style="font-style:normal;font-variant:normal;font-weight:300;font-stretch:normal;font-size:168px;font-family:Nunito;-inkscape-font-specification:'Nunito Light';fill:#ffffff;fill-opacity:1;stroke-width:4"
       id="path921" />
    <path
       d="m 973.57799,188.59109 q -11.424,0 -19.824,-5.04 -8.4,-5.208 -13.104,-14.616 -4.536,-9.576 -4.536,-22.512 0,-12.768 4.536,-22.176 4.704,-9.576 13.104,-14.784 8.4,-5.208 19.824,-5.208 11.592,0 19.992,5.208 8.40001,5.208 12.93601,14.784 4.704,9.408 4.704,22.176 0,12.936 -4.704,22.512 -4.536,9.408 -12.93601,14.616 -8.4,5.04 -19.992,5.04 z m 0,-8.568 q 12.432,0 19.824,-8.736 7.39201,-8.904 7.39201,-24.864 0,-15.96 -7.39201,-24.696 -7.392,-8.736 -19.824,-8.736 -12.432,0 -19.824,8.736 -7.224,8.736 -7.224,24.696 0,15.96 7.224,24.864 7.392,8.736 19.824,8.736 z"
       style="font-style:normal;font-variant:normal;font-weight:300;font-stretch:normal;font-size:168px;font-family:Nunito;-inkscape-font-specification:'Nunito Light';fill:#ffffff;fill-opacity:1;stroke-width:4"
       id="path923" />
    <path
       d="m 1082.4131,188.25509 q -4.704,0 -4.704,-5.04 V 72.839086 q 0,-5.04 4.536,-5.04 2.184,0 3.36,0.84 1.176,0.84 2.184,2.688 l 45.696,86.688004 45.36,-86.688004 q 1.176,-1.848 2.184,-2.688 1.176,-0.84 3.36,-0.84 4.536,0 4.536,5.04 V 183.21509 q 0,5.04 -4.704,5.04 -4.872,0 -4.872,-5.04 V 88.799086 l -40.992,77.784004 q -1.008,1.848 -2.016,2.688 -0.84,0.672 -2.688,0.672 -2.016,0 -3.192,-0.84 -1.008,-0.84 -1.848,-2.52 l -41.496,-77.616004 v 94.248004 q 0,5.04 -4.704,5.04 z"
       style="font-style:normal;font-variant:normal;font-weight:300;font-stretch:normal;font-size:168px;font-family:Nunito;-inkscape-font-specification:'Nunito Light';fill:#ffffff;fill-opacity:1;stroke-width:4"
       id="path925" />
    <path
       d="m 1243.2915,188.59109 q -8.232,0 -14.784,-3.192 -6.384,-3.192 -10.248,-8.736 -3.696,-5.544 -3.696,-12.432 0,-9.072 4.536,-14.112 4.536,-5.208 15.288,-7.392 10.752,-2.184 29.568,-2.184 h 5.208 v -6.048 q 0,-11.256 -4.536,-16.296 -4.536,-5.208 -14.448,-5.208 -6.384,0 -12.432,1.68 -6.048,1.68 -12.6,5.376 -3.024,1.68 -4.872,0.168 -1.68,-1.68 -1.68,-4.2 0.168,-2.688 2.856,-4.032 6.888,-3.864 14.28,-5.712 7.392,-2.016 14.28,-2.016 14.784,0 21.84,7.56 7.224,7.56 7.224,23.184 v 48.048 q 0,5.208 -4.704,5.208 -5.04,0 -5.04,-5.208 v -10.416 q -3.36,7.56 -10.248,11.76 -6.72,4.2 -15.792,4.2 z m 1.344,-8.232 q 7.224,0 12.6,-3.36 5.544,-3.528 8.736,-9.576 3.192,-6.048 3.192,-13.776 v -5.544 h -5.04 q -15.12,0 -23.688,1.344 -8.4,1.344 -11.76,4.704 -3.36,3.36 -3.36,9.24 0,7.56 5.208,12.264 5.208,4.704 14.112,4.704 z"
       style="font-style:normal;font-variant:normal;font-weight:300;font-stretch:normal;font-size:168px;font-family:Nunito;-inkscape-font-specification:'Nunito Light';fill:#ffffff;fill-opacity:1;stroke-width:4"
       id="path927" />
    <path
       d="m 1336.4449,188.59109 q -13.608,0 -20.496,-7.392 -6.72,-7.392 -6.72,-21.168 v -46.032 h -12.432 q -4.872,0 -4.872,-4.2 0,-4.032 4.872,-4.032 h 12.432 V 84.767086 q 0,-5.208 5.208,-5.208 5.04,0 5.04,5.208 v 21.000004 h 22.68 q 4.704,0 4.704,4.032 0,4.2 -4.704,4.2 h -22.68 v 44.688 q 0,10.248 4.2,15.624 4.2,5.376 13.944,5.376 3.36,0 5.544,-0.672 2.184,-0.84 3.864,-0.84 3.024,0 3.024,4.2 0,1.344 -0.672,2.688 -0.504,1.176 -2.016,1.68 -1.848,0.672 -5.04,1.176 -3.192,0.672 -5.88,0.672 z"
       style="font-style:normal;font-variant:normal;font-weight:300;font-stretch:normal;font-size:168px;font-family:Nunito;-inkscape-font-specification:'Nunito Light';fill:#ffffff;fill-opacity:1;stroke-width:4"
       id="path929" />
    <path
       d="m 1368.0026,188.25509 q -5.208,0 -5.208,-5.208 V 73.007086 q 0,-5.208 5.208,-5.208 5.04,0 5.04,5.208 v 46.872004 q 4.2,-7.728 11.592,-11.592 7.56,-4.032 16.632,-4.032 29.064,0 29.064,31.584 v 47.208 q 0,5.208 -5.04,5.208 -5.208,0 -5.208,-5.208 v -46.368 q 0,-12.096 -4.872,-17.808 -4.872,-5.712 -15.456,-5.712 -12.096,0 -19.488,7.56 -7.224,7.392 -7.224,19.992 v 42.336 q 0,5.208 -5.04,5.208 z"
       style="font-style:normal;font-variant:normal;font-weight:300;font-stretch:normal;font-size:168px;font-family:Nunito;-inkscape-font-specification:'Nunito Light';fill:#ffffff;fill-opacity:1;stroke-width:4"
       id="path931" />
    <path
       d="m 1485.6945,188.59109 q -29.064,0 -29.064,-31.584 v -47.04 q 0,-5.376 5.208,-5.376 5.04,0 5.04,5.376 v 46.536 q 0,11.928 4.872,17.64 4.872,5.712 15.288,5.712 11.256,0 18.312,-7.56 7.224,-7.56 7.224,-20.16 v -42.168 q 0,-5.376 5.208,-5.376 5.04,0 5.04,5.376 v 73.08 q 0,5.208 -4.872,5.208 -5.04,0 -5.04,-5.208 v -10.248 q -4.032,7.728 -11.256,11.76 -7.056,4.032 -15.96,4.032 z"
       style="font-style:normal;font-variant:normal;font-weight:300;font-stretch:normal;font-size:168px;font-family:Nunito;-inkscape-font-specification:'Nunito Light';fill:#ffffff;fill-opacity:1;stroke-width:4"
       id="path933" />
    <path
       d="m 1555.0339,188.25509 q -5.208,0 -5.208,-5.208 v -73.08 q 0,-5.376 5.208,-5.376 4.872,0 4.872,5.376 v 10.584 q 3.696,-7.896 10.92,-12.096 7.392,-4.2 16.968,-4.368 2.016,-0.168 3.36,0.84 1.344,1.008 1.344,3.192 0.168,4.704 -4.872,5.208 l -2.352,0.168 q -11.928,1.008 -18.48,7.896 -6.552,6.72 -6.552,18.144 v 43.512 q 0,5.208 -5.208,5.208 z"
       style="font-style:normal;font-variant:normal;font-weight:300;font-stretch:normal;font-size:168px;font-family:Nunito;-inkscape-font-specification:'Nunito Light';fill:#ffffff;fill-opacity:1;stroke-width:4"
       id="path935" />
    <path
       d="m 1612.4557,84.767086 q -7.392,0 -7.392,-7.056 0,-6.888 7.392,-6.888 7.392,0 7.392,6.888 0,7.056 -7.392,7.056 z m 0,103.152004 q -5.208,0 -5.208,-5.544 v -71.904 q 0,-5.376 5.208,-5.376 5.04,0 5.04,5.376 v 71.904 q 0,5.544 -5.04,5.544 z"
       style="font-style:normal;font-variant:normal;font-weight:300;font-stretch:normal;font-size:168px;font-family:Nunito;-inkscape-font-specification:'Nunito Light';fill:#ffffff;fill-opacity:1;stroke-width:4"
       id="path937" />
    <path
       d="m 1649.862,188.25509 q -5.208,0 -5.208,-5.208 v -73.08 q 0,-5.376 5.208,-5.376 4.872,0 4.872,5.376 v 10.416 q 4.032,-8.064 11.592,-12.096 7.56,-4.032 16.8,-4.032 29.064,0 29.064,31.584 v 47.208 q 0,5.208 -5.04,5.208 -5.208,0 -5.208,-5.208 v -46.368 q 0,-12.096 -4.872,-17.808 -4.872,-5.712 -15.456,-5.712 -12.096,0 -19.488,7.56 -7.224,7.392 -7.224,19.992 v 42.336 q 0,5.208 -5.04,5.208 z"
       style="font-style:normal;font-variant:normal;font-weight:300;font-stretch:normal;font-size:168px;font-family:Nunito;-inkscape-font-specification:'Nunito Light';fill:#ffffff;fill-opacity:1;stroke-width:4"
       id="path939" />
  </g>
</svg>
